<svg xmlns="http://www.w3.org/2000/svg" width="1200" height="720" viewBox="0 0 1200 720">
  <rect width="1200" height="720" fill="#141310"/>
  <text x="40" y="58" fill="#f2dfb8" font-family="Arial, sans-serif" font-size="30">v0.1.34 Weapon/Prop Polish Material Swatches</text>
  <text x="40" y="92" fill="#b7aa92" font-family="Arial, sans-serif" font-size="16">Local staged proxies for batch review. Do not promote to shared materials during smoke check.</text>
  <g font-family="Arial, sans-serif" font-size="18" fill="#eadbbf">
    <rect x="40" y="130" width="180" height="92" fill="#ad782b"/><text x="40" y="250">AgedBrass</text>
    <rect x="250" y="130" width="180" height="92" fill="#0e0d0c"/><text x="250" y="250">BlackenedIron</text>
    <rect x="460" y="130" width="180" height="92" fill="#b85222"/><text x="460" y="250">CopperPressureLine</text>
    <rect x="670" y="130" width="180" height="92" fill="#e6cf96"/><text x="670" y="250">CreamGaugeFace</text>
    <rect x="880" y="130" width="180" height="92" fill="#eb8f1f"/><text x="880" y="250">AmberGlass</text>

    <rect x="40" y="300" width="180" height="92" fill="#401f0d"/><text x="40" y="420">WalnutLeather</text>
    <rect x="250" y="300" width="180" height="92" fill="#b30f09"/><text x="250" y="420">WarningRed</text>
    <rect x="460" y="300" width="180" height="92" fill="#080705"/><text x="460" y="420">OilSoot</text>
    <rect x="670" y="300" width="180" height="92" fill="#e8b34d"/><text x="670" y="420">PolishedWear</text>
    <rect x="880" y="300" width="180" height="92" fill="#1c9e5c"/><text x="880" y="420">RouteGreen</text>

    <rect x="40" y="470" width="180" height="92" fill="#403831"/><text x="40" y="590">HeatStainedSteel</text>
  </g>
  <g fill="none" stroke="#6d6049" stroke-width="2">
    <rect x="34" y="124" width="1032" height="446"/>
    <line x1="40" y1="280" x2="1060" y2="280"/>
    <line x1="40" y1="450" x2="1060" y2="450"/>
  </g>
</svg>
