<svg xmlns="http://www.w3.org/2000/svg" width="1400" height="820" viewBox="0 0 1400 820">
  <rect width="1400" height="820" fill="#12110f"/>
  <text x="44" y="58" fill="#f2dfb8" font-family="Arial, sans-serif" font-size="30">v0.1.34 Weapon/Prop Polish Mesh Inventory</text>
  <text x="44" y="92" fill="#b7aa92" font-family="Arial, sans-serif" font-size="16">Four OBJ staging boards, all visual-only and batch-oriented.</text>

  <g font-family="Arial, sans-serif">
    <g transform="translate(44 130)">
      <rect width="300" height="580" rx="6" fill="#1c1a16" stroke="#6d6049"/>
      <text x="22" y="36" fill="#eadbbf" font-size="22">001 Pressure Pistol</text>
      <rect x="40" y="190" width="165" height="58" fill="#0e0d0c"/>
      <rect x="96" y="155" width="170" height="42" fill="#ad782b"/>
      <rect x="215" y="162" width="55" height="32" fill="#e8b34d"/>
      <rect x="65" y="135" width="135" height="18" fill="#b85222"/>
      <rect x="126" y="92" width="54" height="54" fill="#e6cf96"/>
      <polygon points="150,120 177,96 159,126" fill="#b30f09"/>
      <rect x="52" y="250" width="58" height="130" fill="#401f0d"/>
      <text x="22" y="440" fill="#b7aa92" font-size="16">Receiver, chamber, coil, gauge, lever, grip.</text>
    </g>

    <g transform="translate(384 130)">
      <rect width="300" height="580" rx="6" fill="#1c1a16" stroke="#6d6049"/>
      <text x="22" y="36" fill="#eadbbf" font-size="22">002 Scattergun Display</text>
      <rect x="35" y="382" width="230" height="36" fill="#0e0d0c"/>
      <rect x="50" y="175" width="28" height="210" fill="#0e0d0c"/>
      <rect x="222" y="175" width="28" height="210" fill="#0e0d0c"/>
      <rect x="75" y="160" width="190" height="22" fill="#403831"/>
      <rect x="75" y="198" width="190" height="22" fill="#403831"/>
      <rect x="75" y="236" width="190" height="22" fill="#403831"/>
      <rect x="90" y="125" width="150" height="24" fill="#ad782b"/>
      <rect x="70" y="300" width="125" height="34" fill="#401f0d"/>
      <rect x="202" y="296" width="54" height="62" fill="#b85222"/>
      <text x="22" y="440" fill="#b7aa92" font-size="16">Yoke, barrels, pump, slug canister, shell rack.</text>
    </g>

    <g transform="translate(724 130)">
      <rect width="300" height="580" rx="6" fill="#1c1a16" stroke="#6d6049"/>
      <text x="22" y="36" fill="#eadbbf" font-size="22">003 Ammo Pickups</text>
      <rect x="50" y="355" width="200" height="38" fill="#0e0d0c"/>
      <rect x="65" y="150" width="34" height="190" fill="#ad782b"/>
      <rect x="110" y="140" width="34" height="205" fill="#ad782b"/>
      <rect x="155" y="150" width="34" height="190" fill="#ad782b"/>
      <rect x="200" y="160" width="34" height="178" fill="#ad782b"/>
      <rect x="60" y="230" width="180" height="16" fill="#b30f09"/>
      <rect x="65" y="110" width="170" height="24" fill="#b85222"/>
      <rect x="100" y="422" width="82" height="36" fill="#403831"/>
      <polygon points="225,410 260,438 224,464" fill="#1c9e5c"/>
      <text x="22" y="500" fill="#b7aa92" font-size="16">Pressure cells, red seals, nozzles, slug variant.</text>
    </g>

    <g transform="translate(1064 130)">
      <rect width="300" height="580" rx="6" fill="#1c1a16" stroke="#6d6049"/>
      <text x="22" y="36" fill="#eadbbf" font-size="22">004 Route Console</text>
      <rect x="48" y="92" width="204" height="320" fill="#0e0d0c"/>
      <rect x="60" y="105" width="180" height="14" fill="#ad782b"/>
      <rect x="60" y="388" width="180" height="14" fill="#ad782b"/>
      <rect x="105" y="215" width="90" height="18" fill="#ad782b"/>
      <rect x="105" y="315" width="90" height="18" fill="#ad782b"/>
      <rect x="100" y="215" width="18" height="118" fill="#ad782b"/>
      <rect x="182" y="215" width="18" height="118" fill="#ad782b"/>
      <rect x="68" y="125" width="48" height="48" fill="#e6cf96"/>
      <rect x="184" y="125" width="48" height="48" fill="#e6cf96"/>
      <rect x="132" y="142" width="16" height="16" fill="#eb8f1f"/>
      <rect x="152" y="142" width="16" height="16" fill="#eb8f1f"/>
      <rect x="172" y="142" width="16" height="16" fill="#eb8f1f"/>
      <text x="22" y="470" fill="#b7aa92" font-size="16">Valve wheel, gauges, lamps, pipes, grime.</text>
    </g>
  </g>
</svg>
