# SM_CeilingPanel_PipeChannels_4m
# Units: meters. 1 OBJ unit = 1 Unity meter.
# Coordinate system: +Y up, +Z forward.
mtllib KIT_ModularKit_Materials.mtl
o SM_CeilingPanel_PipeChannels_4m
v -2.00000 0.00000 2.00000
v 2.00000 0.00000 2.00000
v 2.00000 0.16000 2.00000
v -2.00000 0.16000 2.00000
v 2.00000 0.00000 -2.00000
v -2.00000 0.00000 -2.00000
v -2.00000 0.16000 -2.00000
v 2.00000 0.16000 -2.00000
v 2.00000 0.00000 2.00000
v 2.00000 0.00000 -2.00000
v 2.00000 0.16000 -2.00000
v 2.00000 0.16000 2.00000
v -2.00000 0.00000 -2.00000
v -2.00000 0.00000 2.00000
v -2.00000 0.16000 2.00000
v -2.00000 0.16000 -2.00000
v -2.00000 0.16000 2.00000
v 2.00000 0.16000 2.00000
v 2.00000 0.16000 -2.00000
v -2.00000 0.16000 -2.00000
v -2.00000 0.00000 -2.00000
v 2.00000 0.00000 -2.00000
v 2.00000 0.00000 2.00000
v -2.00000 0.00000 2.00000
v -0.94000 -0.13000 2.00000
v -0.78000 -0.13000 2.00000
v -0.78000 0.00000 2.00000
v -0.94000 0.00000 2.00000
v -0.78000 -0.13000 -2.00000
v -0.94000 -0.13000 -2.00000
v -0.94000 0.00000 -2.00000
v -0.78000 0.00000 -2.00000
v -0.78000 -0.13000 2.00000
v -0.78000 -0.13000 -2.00000
v -0.78000 0.00000 -2.00000
v -0.78000 0.00000 2.00000
v -0.94000 -0.13000 -2.00000
v -0.94000 -0.13000 2.00000
v -0.94000 0.00000 2.00000
v -0.94000 0.00000 -2.00000
v -0.94000 0.00000 2.00000
v -0.78000 0.00000 2.00000
v -0.78000 0.00000 -2.00000
v -0.94000 0.00000 -2.00000
v -0.94000 -0.13000 -2.00000
v -0.78000 -0.13000 -2.00000
v -0.78000 -0.13000 2.00000
v -0.94000 -0.13000 2.00000
v 0.78000 -0.13000 2.00000
v 0.94000 -0.13000 2.00000
v 0.94000 0.00000 2.00000
v 0.78000 0.00000 2.00000
v 0.94000 -0.13000 -2.00000
v 0.78000 -0.13000 -2.00000
v 0.78000 0.00000 -2.00000
v 0.94000 0.00000 -2.00000
v 0.94000 -0.13000 2.00000
v 0.94000 -0.13000 -2.00000
v 0.94000 0.00000 -2.00000
v 0.94000 0.00000 2.00000
v 0.78000 -0.13000 -2.00000
v 0.78000 -0.13000 2.00000
v 0.78000 0.00000 2.00000
v 0.78000 0.00000 -2.00000
v 0.78000 0.00000 2.00000
v 0.94000 0.00000 2.00000
v 0.94000 0.00000 -2.00000
v 0.78000 0.00000 -2.00000
v 0.78000 -0.13000 -2.00000
v 0.94000 -0.13000 -2.00000
v 0.94000 -0.13000 2.00000
v 0.78000 -0.13000 2.00000
v -0.14000 -0.08000 2.00000
v 0.14000 -0.08000 2.00000
v 0.14000 0.00000 2.00000
v -0.14000 0.00000 2.00000
v 0.14000 -0.08000 -2.00000
v -0.14000 -0.08000 -2.00000
v -0.14000 0.00000 -2.00000
v 0.14000 0.00000 -2.00000
v 0.14000 -0.08000 2.00000
v 0.14000 -0.08000 -2.00000
v 0.14000 0.00000 -2.00000
v 0.14000 0.00000 2.00000
v -0.14000 -0.08000 -2.00000
v -0.14000 -0.08000 2.00000
v -0.14000 0.00000 2.00000
v -0.14000 0.00000 -2.00000
v -0.14000 0.00000 2.00000
v 0.14000 0.00000 2.00000
v 0.14000 0.00000 -2.00000
v -0.14000 0.00000 -2.00000
v -0.14000 -0.08000 -2.00000
v 0.14000 -0.08000 -2.00000
v 0.14000 -0.08000 2.00000
v -0.14000 -0.08000 2.00000
v 0.07500 -0.16000 -1.89000
v 0.06929 -0.13130 -1.89000
v 0.06929 -0.13130 1.89000
v 0.07500 -0.16000 1.89000
v 0.06929 -0.13130 -1.89000
v 0.05303 -0.10697 -1.89000
v 0.05303 -0.10697 1.89000
v 0.06929 -0.13130 1.89000
v 0.05303 -0.10697 -1.89000
v 0.02870 -0.09071 -1.89000
v 0.02870 -0.09071 1.89000
v 0.05303 -0.10697 1.89000
v 0.02870 -0.09071 -1.89000
v 0.00000 -0.08500 -1.89000
v 0.00000 -0.08500 1.89000
v 0.02870 -0.09071 1.89000
v 0.00000 -0.08500 -1.89000
v -0.02870 -0.09071 -1.89000
v -0.02870 -0.09071 1.89000
v 0.00000 -0.08500 1.89000
v -0.02870 -0.09071 -1.89000
v -0.05303 -0.10697 -1.89000
v -0.05303 -0.10697 1.89000
v -0.02870 -0.09071 1.89000
v -0.05303 -0.10697 -1.89000
v -0.06929 -0.13130 -1.89000
v -0.06929 -0.13130 1.89000
v -0.05303 -0.10697 1.89000
v -0.06929 -0.13130 -1.89000
v -0.07500 -0.16000 -1.89000
v -0.07500 -0.16000 1.89000
v -0.06929 -0.13130 1.89000
v -0.07500 -0.16000 -1.89000
v -0.06929 -0.18870 -1.89000
v -0.06929 -0.18870 1.89000
v -0.07500 -0.16000 1.89000
v -0.06929 -0.18870 -1.89000
v -0.05303 -0.21303 -1.89000
v -0.05303 -0.21303 1.89000
v -0.06929 -0.18870 1.89000
v -0.05303 -0.21303 -1.89000
v -0.02870 -0.22929 -1.89000
v -0.02870 -0.22929 1.89000
v -0.05303 -0.21303 1.89000
v -0.02870 -0.22929 -1.89000
v -0.00000 -0.23500 -1.89000
v -0.00000 -0.23500 1.89000
v -0.02870 -0.22929 1.89000
v -0.00000 -0.23500 -1.89000
v 0.02870 -0.22929 -1.89000
v 0.02870 -0.22929 1.89000
v -0.00000 -0.23500 1.89000
v 0.02870 -0.22929 -1.89000
v 0.05303 -0.21303 -1.89000
v 0.05303 -0.21303 1.89000
v 0.02870 -0.22929 1.89000
v 0.05303 -0.21303 -1.89000
v 0.06929 -0.18870 -1.89000
v 0.06929 -0.18870 1.89000
v 0.05303 -0.21303 1.89000
v 0.06929 -0.18870 -1.89000
v 0.07500 -0.16000 -1.89000
v 0.07500 -0.16000 1.89000
v 0.06929 -0.18870 1.89000
v 0.06929 -0.13130 -1.89000
v 0.07500 -0.16000 -1.89000
v 0.00000 -0.16000 -1.89000
v 0.05303 -0.10697 -1.89000
v 0.06929 -0.13130 -1.89000
v 0.00000 -0.16000 -1.89000
v 0.02870 -0.09071 -1.89000
v 0.05303 -0.10697 -1.89000
v 0.00000 -0.16000 -1.89000
v 0.00000 -0.08500 -1.89000
v 0.02870 -0.09071 -1.89000
v 0.00000 -0.16000 -1.89000
v -0.02870 -0.09071 -1.89000
v 0.00000 -0.08500 -1.89000
v 0.00000 -0.16000 -1.89000
v -0.05303 -0.10697 -1.89000
v -0.02870 -0.09071 -1.89000
v 0.00000 -0.16000 -1.89000
v -0.06929 -0.13130 -1.89000
v -0.05303 -0.10697 -1.89000
v 0.00000 -0.16000 -1.89000
v -0.07500 -0.16000 -1.89000
v -0.06929 -0.13130 -1.89000
v 0.00000 -0.16000 -1.89000
v -0.06929 -0.18870 -1.89000
v -0.07500 -0.16000 -1.89000
v 0.00000 -0.16000 -1.89000
v -0.05303 -0.21303 -1.89000
v -0.06929 -0.18870 -1.89000
v 0.00000 -0.16000 -1.89000
v -0.02870 -0.22929 -1.89000
v -0.05303 -0.21303 -1.89000
v 0.00000 -0.16000 -1.89000
v -0.00000 -0.23500 -1.89000
v -0.02870 -0.22929 -1.89000
v 0.00000 -0.16000 -1.89000
v 0.02870 -0.22929 -1.89000
v -0.00000 -0.23500 -1.89000
v 0.00000 -0.16000 -1.89000
v 0.05303 -0.21303 -1.89000
v 0.02870 -0.22929 -1.89000
v 0.00000 -0.16000 -1.89000
v 0.06929 -0.18870 -1.89000
v 0.05303 -0.21303 -1.89000
v 0.00000 -0.16000 -1.89000
v 0.07500 -0.16000 -1.89000
v 0.06929 -0.18870 -1.89000
v 0.00000 -0.16000 -1.89000
v 0.00000 -0.16000 1.89000
v 0.07500 -0.16000 1.89000
v 0.06929 -0.13130 1.89000
v 0.00000 -0.16000 1.89000
v 0.06929 -0.13130 1.89000
v 0.05303 -0.10697 1.89000
v 0.00000 -0.16000 1.89000
v 0.05303 -0.10697 1.89000
v 0.02870 -0.09071 1.89000
v 0.00000 -0.16000 1.89000
v 0.02870 -0.09071 1.89000
v 0.00000 -0.08500 1.89000
v 0.00000 -0.16000 1.89000
v 0.00000 -0.08500 1.89000
v -0.02870 -0.09071 1.89000
v 0.00000 -0.16000 1.89000
v -0.02870 -0.09071 1.89000
v -0.05303 -0.10697 1.89000
v 0.00000 -0.16000 1.89000
v -0.05303 -0.10697 1.89000
v -0.06929 -0.13130 1.89000
v 0.00000 -0.16000 1.89000
v -0.06929 -0.13130 1.89000
v -0.07500 -0.16000 1.89000
v 0.00000 -0.16000 1.89000
v -0.07500 -0.16000 1.89000
v -0.06929 -0.18870 1.89000
v 0.00000 -0.16000 1.89000
v -0.06929 -0.18870 1.89000
v -0.05303 -0.21303 1.89000
v 0.00000 -0.16000 1.89000
v -0.05303 -0.21303 1.89000
v -0.02870 -0.22929 1.89000
v 0.00000 -0.16000 1.89000
v -0.02870 -0.22929 1.89000
v -0.00000 -0.23500 1.89000
v 0.00000 -0.16000 1.89000
v -0.00000 -0.23500 1.89000
v 0.02870 -0.22929 1.89000
v 0.00000 -0.16000 1.89000
v 0.02870 -0.22929 1.89000
v 0.05303 -0.21303 1.89000
v 0.00000 -0.16000 1.89000
v 0.05303 -0.21303 1.89000
v 0.06929 -0.18870 1.89000
v 0.00000 -0.16000 1.89000
v 0.06929 -0.18870 1.89000
v 0.07500 -0.16000 1.89000
v -1.20000 -0.11500 -1.51000
v 1.20000 -0.11500 -1.51000
v 1.20000 -0.05500 -1.51000
v -1.20000 -0.05500 -1.51000
v 1.20000 -0.11500 -1.59000
v -1.20000 -0.11500 -1.59000
v -1.20000 -0.05500 -1.59000
v 1.20000 -0.05500 -1.59000
v 1.20000 -0.11500 -1.51000
v 1.20000 -0.11500 -1.59000
v 1.20000 -0.05500 -1.59000
v 1.20000 -0.05500 -1.51000
v -1.20000 -0.11500 -1.59000
v -1.20000 -0.11500 -1.51000
v -1.20000 -0.05500 -1.51000
v -1.20000 -0.05500 -1.59000
v -1.20000 -0.05500 -1.51000
v 1.20000 -0.05500 -1.51000
v 1.20000 -0.05500 -1.59000
v -1.20000 -0.05500 -1.59000
v -1.20000 -0.11500 -1.59000
v 1.20000 -0.11500 -1.59000
v 1.20000 -0.11500 -1.51000
v -1.20000 -0.11500 -1.51000
v -1.20000 -0.11500 -0.51000
v 1.20000 -0.11500 -0.51000
v 1.20000 -0.05500 -0.51000
v -1.20000 -0.05500 -0.51000
v 1.20000 -0.11500 -0.59000
v -1.20000 -0.11500 -0.59000
v -1.20000 -0.05500 -0.59000
v 1.20000 -0.05500 -0.59000
v 1.20000 -0.11500 -0.51000
v 1.20000 -0.11500 -0.59000
v 1.20000 -0.05500 -0.59000
v 1.20000 -0.05500 -0.51000
v -1.20000 -0.11500 -0.59000
v -1.20000 -0.11500 -0.51000
v -1.20000 -0.05500 -0.51000
v -1.20000 -0.05500 -0.59000
v -1.20000 -0.05500 -0.51000
v 1.20000 -0.05500 -0.51000
v 1.20000 -0.05500 -0.59000
v -1.20000 -0.05500 -0.59000
v -1.20000 -0.11500 -0.59000
v 1.20000 -0.11500 -0.59000
v 1.20000 -0.11500 -0.51000
v -1.20000 -0.11500 -0.51000
v -1.20000 -0.11500 0.59000
v 1.20000 -0.11500 0.59000
v 1.20000 -0.05500 0.59000
v -1.20000 -0.05500 0.59000
v 1.20000 -0.11500 0.51000
v -1.20000 -0.11500 0.51000
v -1.20000 -0.05500 0.51000
v 1.20000 -0.05500 0.51000
v 1.20000 -0.11500 0.59000
v 1.20000 -0.11500 0.51000
v 1.20000 -0.05500 0.51000
v 1.20000 -0.05500 0.59000
v -1.20000 -0.11500 0.51000
v -1.20000 -0.11500 0.59000
v -1.20000 -0.05500 0.59000
v -1.20000 -0.05500 0.51000
v -1.20000 -0.05500 0.59000
v 1.20000 -0.05500 0.59000
v 1.20000 -0.05500 0.51000
v -1.20000 -0.05500 0.51000
v -1.20000 -0.11500 0.51000
v 1.20000 -0.11500 0.51000
v 1.20000 -0.11500 0.59000
v -1.20000 -0.11500 0.59000
v -1.20000 -0.11500 1.59000
v 1.20000 -0.11500 1.59000
v 1.20000 -0.05500 1.59000
v -1.20000 -0.05500 1.59000
v 1.20000 -0.11500 1.51000
v -1.20000 -0.11500 1.51000
v -1.20000 -0.05500 1.51000
v 1.20000 -0.05500 1.51000
v 1.20000 -0.11500 1.59000
v 1.20000 -0.11500 1.51000
v 1.20000 -0.05500 1.51000
v 1.20000 -0.05500 1.59000
v -1.20000 -0.11500 1.51000
v -1.20000 -0.11500 1.59000
v -1.20000 -0.05500 1.59000
v -1.20000 -0.05500 1.51000
v -1.20000 -0.05500 1.59000
v 1.20000 -0.05500 1.59000
v 1.20000 -0.05500 1.51000
v -1.20000 -0.05500 1.51000
v -1.20000 -0.11500 1.51000
v 1.20000 -0.11500 1.51000
v 1.20000 -0.11500 1.59000
v -1.20000 -0.11500 1.59000
vt 0.00000 0.00000
vt 1.00000 0.00000
vt 1.00000 1.00000
vt 0.00000 1.00000
vt 0.00000 0.00000
vt 1.00000 0.00000
vt 1.00000 1.00000
vt 0.00000 1.00000
vt 0.00000 0.00000
vt 1.00000 0.00000
vt 1.00000 1.00000
vt 0.00000 1.00000
vt 0.00000 0.00000
vt 1.00000 0.00000
vt 1.00000 1.00000
vt 0.00000 1.00000
vt 0.00000 0.00000
vt 1.00000 0.00000
vt 1.00000 1.00000
vt 0.00000 1.00000
vt 0.00000 0.00000
vt 1.00000 0.00000
vt 1.00000 1.00000
vt 0.00000 1.00000
vt 0.00000 0.00000
vt 1.00000 0.00000
vt 1.00000 1.00000
vt 0.00000 1.00000
vt 0.00000 0.00000
vt 1.00000 0.00000
vt 1.00000 1.00000
vt 0.00000 1.00000
vt 0.00000 0.00000
vt 1.00000 0.00000
vt 1.00000 1.00000
vt 0.00000 1.00000
vt 0.00000 0.00000
vt 1.00000 0.00000
vt 1.00000 1.00000
vt 0.00000 1.00000
vt 0.00000 0.00000
vt 1.00000 0.00000
vt 1.00000 1.00000
vt 0.00000 1.00000
vt 0.00000 0.00000
vt 1.00000 0.00000
vt 1.00000 1.00000
vt 0.00000 1.00000
vt 0.00000 0.00000
vt 1.00000 0.00000
vt 1.00000 1.00000
vt 0.00000 1.00000
vt 0.00000 0.00000
vt 1.00000 0.00000
vt 1.00000 1.00000
vt 0.00000 1.00000
vt 0.00000 0.00000
vt 1.00000 0.00000
vt 1.00000 1.00000
vt 0.00000 1.00000
vt 0.00000 0.00000
vt 1.00000 0.00000
vt 1.00000 1.00000
vt 0.00000 1.00000
vt 0.00000 0.00000
vt 1.00000 0.00000
vt 1.00000 1.00000
vt 0.00000 1.00000
vt 0.00000 0.00000
vt 1.00000 0.00000
vt 1.00000 1.00000
vt 0.00000 1.00000
vt 0.00000 0.00000
vt 1.00000 0.00000
vt 1.00000 1.00000
vt 0.00000 1.00000
vt 0.00000 0.00000
vt 1.00000 0.00000
vt 1.00000 1.00000
vt 0.00000 1.00000
vt 0.00000 0.00000
vt 1.00000 0.00000
vt 1.00000 1.00000
vt 0.00000 1.00000
vt 0.00000 0.00000
vt 1.00000 0.00000
vt 1.00000 1.00000
vt 0.00000 1.00000
vt 0.00000 0.00000
vt 1.00000 0.00000
vt 1.00000 1.00000
vt 0.00000 1.00000
vt 0.00000 0.00000
vt 1.00000 0.00000
vt 1.00000 1.00000
vt 0.00000 1.00000
vt 0.00000 0.00000
vt 0.06250 0.00000
vt 0.06250 1.00000
vt 0.00000 1.00000
vt 0.06250 0.00000
vt 0.12500 0.00000
vt 0.12500 1.00000
vt 0.06250 1.00000
vt 0.12500 0.00000
vt 0.18750 0.00000
vt 0.18750 1.00000
vt 0.12500 1.00000
vt 0.18750 0.00000
vt 0.25000 0.00000
vt 0.25000 1.00000
vt 0.18750 1.00000
vt 0.25000 0.00000
vt 0.31250 0.00000
vt 0.31250 1.00000
vt 0.25000 1.00000
vt 0.31250 0.00000
vt 0.37500 0.00000
vt 0.37500 1.00000
vt 0.31250 1.00000
vt 0.37500 0.00000
vt 0.43750 0.00000
vt 0.43750 1.00000
vt 0.37500 1.00000
vt 0.43750 0.00000
vt 0.50000 0.00000
vt 0.50000 1.00000
vt 0.43750 1.00000
vt 0.50000 0.00000
vt 0.56250 0.00000
vt 0.56250 1.00000
vt 0.50000 1.00000
vt 0.56250 0.00000
vt 0.62500 0.00000
vt 0.62500 1.00000
vt 0.56250 1.00000
vt 0.62500 0.00000
vt 0.68750 0.00000
vt 0.68750 1.00000
vt 0.62500 1.00000
vt 0.68750 0.00000
vt 0.75000 0.00000
vt 0.75000 1.00000
vt 0.68750 1.00000
vt 0.75000 0.00000
vt 0.81250 0.00000
vt 0.81250 1.00000
vt 0.75000 1.00000
vt 0.81250 0.00000
vt 0.87500 0.00000
vt 0.87500 1.00000
vt 0.81250 1.00000
vt 0.87500 0.00000
vt 0.93750 0.00000
vt 0.93750 1.00000
vt 0.87500 1.00000
vt 0.93750 0.00000
vt 1.00000 0.00000
vt 1.00000 1.00000
vt 0.93750 1.00000
vt 0.00000 0.00000
vt 1.00000 0.00000
vt 0.50000 1.00000
vt 0.00000 0.00000
vt 1.00000 0.00000
vt 0.50000 1.00000
vt 0.00000 0.00000
vt 1.00000 0.00000
vt 0.50000 1.00000
vt 0.00000 0.00000
vt 1.00000 0.00000
vt 0.50000 1.00000
vt 0.00000 0.00000
vt 1.00000 0.00000
vt 0.50000 1.00000
vt 0.00000 0.00000
vt 1.00000 0.00000
vt 0.50000 1.00000
vt 0.00000 0.00000
vt 1.00000 0.00000
vt 0.50000 1.00000
vt 0.00000 0.00000
vt 1.00000 0.00000
vt 0.50000 1.00000
vt 0.00000 0.00000
vt 1.00000 0.00000
vt 0.50000 1.00000
vt 0.00000 0.00000
vt 1.00000 0.00000
vt 0.50000 1.00000
vt 0.00000 0.00000
vt 1.00000 0.00000
vt 0.50000 1.00000
vt 0.00000 0.00000
vt 1.00000 0.00000
vt 0.50000 1.00000
vt 0.00000 0.00000
vt 1.00000 0.00000
vt 0.50000 1.00000
vt 0.00000 0.00000
vt 1.00000 0.00000
vt 0.50000 1.00000
vt 0.00000 0.00000
vt 1.00000 0.00000
vt 0.50000 1.00000
vt 0.00000 0.00000
vt 1.00000 0.00000
vt 0.50000 1.00000
vt 0.00000 0.00000
vt 1.00000 0.00000
vt 0.50000 1.00000
vt 0.00000 0.00000
vt 1.00000 0.00000
vt 0.50000 1.00000
vt 0.00000 0.00000
vt 1.00000 0.00000
vt 0.50000 1.00000
vt 0.00000 0.00000
vt 1.00000 0.00000
vt 0.50000 1.00000
vt 0.00000 0.00000
vt 1.00000 0.00000
vt 0.50000 1.00000
vt 0.00000 0.00000
vt 1.00000 0.00000
vt 0.50000 1.00000
vt 0.00000 0.00000
vt 1.00000 0.00000
vt 0.50000 1.00000
vt 0.00000 0.00000
vt 1.00000 0.00000
vt 0.50000 1.00000
vt 0.00000 0.00000
vt 1.00000 0.00000
vt 0.50000 1.00000
vt 0.00000 0.00000
vt 1.00000 0.00000
vt 0.50000 1.00000
vt 0.00000 0.00000
vt 1.00000 0.00000
vt 0.50000 1.00000
vt 0.00000 0.00000
vt 1.00000 0.00000
vt 0.50000 1.00000
vt 0.00000 0.00000
vt 1.00000 0.00000
vt 0.50000 1.00000
vt 0.00000 0.00000
vt 1.00000 0.00000
vt 0.50000 1.00000
vt 0.00000 0.00000
vt 1.00000 0.00000
vt 0.50000 1.00000
vt 0.00000 0.00000
vt 1.00000 0.00000
vt 0.50000 1.00000
vt 0.00000 0.00000
vt 1.00000 0.00000
vt 1.00000 1.00000
vt 0.00000 1.00000
vt 0.00000 0.00000
vt 1.00000 0.00000
vt 1.00000 1.00000
vt 0.00000 1.00000
vt 0.00000 0.00000
vt 1.00000 0.00000
vt 1.00000 1.00000
vt 0.00000 1.00000
vt 0.00000 0.00000
vt 1.00000 0.00000
vt 1.00000 1.00000
vt 0.00000 1.00000
vt 0.00000 0.00000
vt 1.00000 0.00000
vt 1.00000 1.00000
vt 0.00000 1.00000
vt 0.00000 0.00000
vt 1.00000 0.00000
vt 1.00000 1.00000
vt 0.00000 1.00000
vt 0.00000 0.00000
vt 1.00000 0.00000
vt 1.00000 1.00000
vt 0.00000 1.00000
vt 0.00000 0.00000
vt 1.00000 0.00000
vt 1.00000 1.00000
vt 0.00000 1.00000
vt 0.00000 0.00000
vt 1.00000 0.00000
vt 1.00000 1.00000
vt 0.00000 1.00000
vt 0.00000 0.00000
vt 1.00000 0.00000
vt 1.00000 1.00000
vt 0.00000 1.00000
vt 0.00000 0.00000
vt 1.00000 0.00000
vt 1.00000 1.00000
vt 0.00000 1.00000
vt 0.00000 0.00000
vt 1.00000 0.00000
vt 1.00000 1.00000
vt 0.00000 1.00000
vt 0.00000 0.00000
vt 1.00000 0.00000
vt 1.00000 1.00000
vt 0.00000 1.00000
vt 0.00000 0.00000
vt 1.00000 0.00000
vt 1.00000 1.00000
vt 0.00000 1.00000
vt 0.00000 0.00000
vt 1.00000 0.00000
vt 1.00000 1.00000
vt 0.00000 1.00000
vt 0.00000 0.00000
vt 1.00000 0.00000
vt 1.00000 1.00000
vt 0.00000 1.00000
vt 0.00000 0.00000
vt 1.00000 0.00000
vt 1.00000 1.00000
vt 0.00000 1.00000
vt 0.00000 0.00000
vt 1.00000 0.00000
vt 1.00000 1.00000
vt 0.00000 1.00000
vt 0.00000 0.00000
vt 1.00000 0.00000
vt 1.00000 1.00000
vt 0.00000 1.00000
vt 0.00000 0.00000
vt 1.00000 0.00000
vt 1.00000 1.00000
vt 0.00000 1.00000
vt 0.00000 0.00000
vt 1.00000 0.00000
vt 1.00000 1.00000
vt 0.00000 1.00000
vt 0.00000 0.00000
vt 1.00000 0.00000
vt 1.00000 1.00000
vt 0.00000 1.00000
vt 0.00000 0.00000
vt 1.00000 0.00000
vt 1.00000 1.00000
vt 0.00000 1.00000
vt 0.00000 0.00000
vt 1.00000 0.00000
vt 1.00000 1.00000
vt 0.00000 1.00000
vn 0.00000 0.00000 1.00000
vn 0.00000 0.00000 -1.00000
vn 1.00000 0.00000 0.00000
vn -1.00000 0.00000 0.00000
vn -0.00000 1.00000 0.00000
vn 0.00000 -1.00000 0.00000
vn 0.00000 0.00000 1.00000
vn 0.00000 0.00000 -1.00000
vn 1.00000 0.00000 0.00000
vn -1.00000 0.00000 0.00000
vn 0.00000 1.00000 0.00000
vn 0.00000 -1.00000 0.00000
vn 0.00000 0.00000 1.00000
vn 0.00000 0.00000 -1.00000
vn 1.00000 0.00000 0.00000
vn -1.00000 0.00000 0.00000
vn 0.00000 1.00000 0.00000
vn 0.00000 -1.00000 0.00000
vn 0.00000 0.00000 1.00000
vn 0.00000 0.00000 -1.00000
vn 1.00000 0.00000 0.00000
vn -1.00000 0.00000 0.00000
vn 0.00000 1.00000 0.00000
vn 0.00000 -1.00000 0.00000
vn 0.98079 0.19509 0.00000
vn 0.83147 0.55557 0.00000
vn 0.55557 0.83147 0.00000
vn 0.19509 0.98079 0.00000
vn -0.19509 0.98079 0.00000
vn -0.55557 0.83147 0.00000
vn -0.83147 0.55557 0.00000
vn -0.98079 0.19509 0.00000
vn -0.98079 -0.19509 0.00000
vn -0.83147 -0.55557 0.00000
vn -0.55557 -0.83147 0.00000
vn -0.19509 -0.98079 0.00000
vn 0.19509 -0.98079 0.00000
vn 0.55557 -0.83147 0.00000
vn 0.83147 -0.55557 0.00000
vn 0.98079 -0.19509 0.00000
vn 0.00000 -0.00000 -1.00000
vn 0.00000 -0.00000 -1.00000
vn 0.00000 -0.00000 -1.00000
vn 0.00000 -0.00000 -1.00000
vn 0.00000 0.00000 -1.00000
vn 0.00000 0.00000 -1.00000
vn 0.00000 0.00000 -1.00000
vn 0.00000 0.00000 -1.00000
vn 0.00000 0.00000 -1.00000
vn 0.00000 0.00000 -1.00000
vn 0.00000 0.00000 -1.00000
vn 0.00000 0.00000 -1.00000
vn -0.00000 0.00000 -1.00000
vn -0.00000 0.00000 -1.00000
vn -0.00000 0.00000 -1.00000
vn -0.00000 0.00000 -1.00000
vn 0.00000 0.00000 1.00000
vn 0.00000 0.00000 1.00000
vn 0.00000 0.00000 1.00000
vn 0.00000 0.00000 1.00000
vn 0.00000 -0.00000 1.00000
vn 0.00000 0.00000 1.00000
vn 0.00000 0.00000 1.00000
vn 0.00000 0.00000 1.00000
vn 0.00000 0.00000 1.00000
vn 0.00000 0.00000 1.00000
vn 0.00000 0.00000 1.00000
vn 0.00000 0.00000 1.00000
vn 0.00000 0.00000 1.00000
vn 0.00000 0.00000 1.00000
vn 0.00000 0.00000 1.00000
vn 0.00000 0.00000 1.00000
vn 0.00000 0.00000 1.00000
vn 0.00000 0.00000 -1.00000
vn 1.00000 0.00000 0.00000
vn -1.00000 0.00000 0.00000
vn -0.00000 1.00000 0.00000
vn 0.00000 -1.00000 0.00000
vn 0.00000 0.00000 1.00000
vn 0.00000 0.00000 -1.00000
vn 1.00000 0.00000 0.00000
vn -1.00000 0.00000 0.00000
vn -0.00000 1.00000 0.00000
vn 0.00000 -1.00000 0.00000
vn 0.00000 0.00000 1.00000
vn 0.00000 0.00000 -1.00000
vn 1.00000 0.00000 0.00000
vn -1.00000 0.00000 0.00000
vn -0.00000 1.00000 0.00000
vn 0.00000 -1.00000 0.00000
vn 0.00000 0.00000 1.00000
vn 0.00000 0.00000 -1.00000
vn 1.00000 0.00000 0.00000
vn -1.00000 0.00000 0.00000
vn -0.00000 1.00000 0.00000
vn 0.00000 -1.00000 0.00000
s off
g Iron_CeilingSlab
usemtl MAT_RivetedIron
f 1/1/1 2/2/1 3/3/1 4/4/1
f 5/5/2 6/6/2 7/7/2 8/8/2
f 9/9/3 10/10/3 11/11/3 12/12/3
f 13/13/4 14/14/4 15/15/4 16/16/4
f 17/17/5 18/18/5 19/19/5 20/20/5
f 21/21/6 22/22/6 23/23/6 24/24/6
g Brass_PipeChannelRails
usemtl MAT_AgedBrass
f 25/25/7 26/26/7 27/27/7 28/28/7
f 29/29/8 30/30/8 31/31/8 32/32/8
f 33/33/9 34/34/9 35/35/9 36/36/9
f 37/37/10 38/38/10 39/39/10 40/40/10
f 41/41/11 42/42/11 43/43/11 44/44/11
f 45/45/12 46/46/12 47/47/12 48/48/12
f 49/49/13 50/50/13 51/51/13 52/52/13
f 53/53/14 54/54/14 55/55/14 56/56/14
f 57/57/15 58/58/15 59/59/15 60/60/15
f 61/61/16 62/62/16 63/63/16 64/64/16
f 65/65/17 66/66/17 67/67/17 68/68/17
f 69/69/18 70/70/18 71/71/18 72/72/18
g Central_ChannelShadow
usemtl MAT_DarkGrate
f 73/73/19 74/74/19 75/75/19 76/76/19
f 77/77/20 78/78/20 79/79/20 80/80/20
f 81/81/21 82/82/21 83/83/21 84/84/21
f 85/85/22 86/86/22 87/87/22 88/88/22
f 89/89/23 90/90/23 91/91/23 92/92/23
f 93/93/24 94/94/24 95/95/24 96/96/24
g Oxidized_CeilingPipe
usemtl MAT_OxidizedPipe
f 97/97/25 98/98/25 99/99/25 100/100/25
f 101/101/26 102/102/26 103/103/26 104/104/26
f 105/105/27 106/106/27 107/107/27 108/108/27
f 109/109/28 110/110/28 111/111/28 112/112/28
f 113/113/29 114/114/29 115/115/29 116/116/29
f 117/117/30 118/118/30 119/119/30 120/120/30
f 121/121/31 122/122/31 123/123/31 124/124/31
f 125/125/32 126/126/32 127/127/32 128/128/32
f 129/129/33 130/130/33 131/131/33 132/132/33
f 133/133/34 134/134/34 135/135/34 136/136/34
f 137/137/35 138/138/35 139/139/35 140/140/35
f 141/141/36 142/142/36 143/143/36 144/144/36
f 145/145/37 146/146/37 147/147/37 148/148/37
f 149/149/38 150/150/38 151/151/38 152/152/38
f 153/153/39 154/154/39 155/155/39 156/156/39
f 157/157/40 158/158/40 159/159/40 160/160/40
f 161/161/41 162/162/41 163/163/41
f 164/164/42 165/165/42 166/166/42
f 167/167/43 168/168/43 169/169/43
f 170/170/44 171/171/44 172/172/44
f 173/173/45 174/174/45 175/175/45
f 176/176/46 177/177/46 178/178/46
f 179/179/47 180/180/47 181/181/47
f 182/182/48 183/183/48 184/184/48
f 185/185/49 186/186/49 187/187/49
f 188/188/50 189/189/50 190/190/50
f 191/191/51 192/192/51 193/193/51
f 194/194/52 195/195/52 196/196/52
f 197/197/53 198/198/53 199/199/53
f 200/200/54 201/201/54 202/202/54
f 203/203/55 204/204/55 205/205/55
f 206/206/56 207/207/56 208/208/56
f 209/209/57 210/210/57 211/211/57
f 212/212/58 213/213/58 214/214/58
f 215/215/59 216/216/59 217/217/59
f 218/218/60 219/219/60 220/220/60
f 221/221/61 222/222/61 223/223/61
f 224/224/62 225/225/62 226/226/62
f 227/227/63 228/228/63 229/229/63
f 230/230/64 231/231/64 232/232/64
f 233/233/65 234/234/65 235/235/65
f 236/236/66 237/237/66 238/238/66
f 239/239/67 240/240/67 241/241/67
f 242/242/68 243/243/68 244/244/68
f 245/245/69 246/246/69 247/247/69
f 248/248/70 249/249/70 250/250/70
f 251/251/71 252/252/71 253/253/71
f 254/254/72 255/255/72 256/256/72
g Brass_ChannelStraps
usemtl MAT_AgedBrass
f 257/257/73 258/258/73 259/259/73 260/260/73
f 261/261/74 262/262/74 263/263/74 264/264/74
f 265/265/75 266/266/75 267/267/75 268/268/75
f 269/269/76 270/270/76 271/271/76 272/272/76
f 273/273/77 274/274/77 275/275/77 276/276/77
f 277/277/78 278/278/78 279/279/78 280/280/78
f 281/281/79 282/282/79 283/283/79 284/284/79
f 285/285/80 286/286/80 287/287/80 288/288/80
f 289/289/81 290/290/81 291/291/81 292/292/81
f 293/293/82 294/294/82 295/295/82 296/296/82
f 297/297/83 298/298/83 299/299/83 300/300/83
f 301/301/84 302/302/84 303/303/84 304/304/84
f 305/305/85 306/306/85 307/307/85 308/308/85
f 309/309/86 310/310/86 311/311/86 312/312/86
f 313/313/87 314/314/87 315/315/87 316/316/87
f 317/317/88 318/318/88 319/319/88 320/320/88
f 321/321/89 322/322/89 323/323/89 324/324/89
f 325/325/90 326/326/90 327/327/90 328/328/90
f 329/329/91 330/330/91 331/331/91 332/332/91
f 333/333/92 334/334/92 335/335/92 336/336/92
f 337/337/93 338/338/93 339/339/93 340/340/93
f 341/341/94 342/342/94 343/343/94 344/344/94
f 345/345/95 346/346/95 347/347/95 348/348/95
f 349/349/96 350/350/96 351/351/96 352/352/96
